<?xml version="1.0" encoding="utf-8"?>
<!-- Generator: Adobe Illustrator 16.0.0, SVG Export Plug-In . SVG Version: 6.00 Build 0)  -->
<!DOCTYPE svg PUBLIC "-//W3C//DTD SVG 1.1//EN" "http://www.w3.org/Graphics/SVG/1.1/DTD/svg11.dtd" [
	<!ENTITY ns_extend "http://ns.adobe.com/Extensibility/1.0/">
	<!ENTITY ns_ai "http://ns.adobe.com/AdobeIllustrator/10.0/">
	<!ENTITY ns_graphs "http://ns.adobe.com/Graphs/1.0/">
	<!ENTITY ns_vars "http://ns.adobe.com/Variables/1.0/">
	<!ENTITY ns_imrep "http://ns.adobe.com/ImageReplacement/1.0/">
	<!ENTITY ns_sfw "http://ns.adobe.com/SaveForWeb/1.0/">
	<!ENTITY ns_custom "http://ns.adobe.com/GenericCustomNamespace/1.0/">
	<!ENTITY ns_adobe_xpath "http://ns.adobe.com/XPath/1.0/">
]>
<svg version="1.1" id="Layer_1" xmlns:x="&ns_extend;" xmlns:i="&ns_ai;" xmlns:graph="&ns_graphs;"
	 xmlns="http://www.w3.org/2000/svg" xmlns:xlink="http://www.w3.org/1999/xlink" x="0px" y="0px" width="47px" height="20px"
	 viewBox="0 0 47 20" enable-background="new 0 0 47 20" xml:space="preserve">
<metadata>
	<sfw  xmlns="&ns_sfw;">
		<slices></slices>
		<sliceSourceBounds  width="16383" height="16383" y="-8472" x="-7711" bottomLeftOrigin="true"></sliceSourceBounds>
	</sfw>
</metadata>
<g>
	<polygon fill="#FFFFFF" points="43,4 44,4 45,4 42,1 39,4 41,4 41,16 40.356,16 39,16 42,19 45,16 43,16 	"/>
	<path fill="#FFFFFF" d="M21.812,1l-5.846,8.364L12.525,5h-1.743L1,18h1.877l4.578-6.497L9.139,13h1.067l1.529-1.475l1.607,1.592
		L9.931,18h1.82l5.894-8.541L19.963,12h1.07l2.129-2.309L25.601,12h1.036l2.181-2.297L34.527,18h1.826L24.597,1H21.812z M12.224,10
		h-1.059l-1.521,1.658l-1.299-1.26L11.53,6h0.257l3.354,4.545L14.194,11.9L12.224,10z M27.956,8.26l-1.845,1.923L23.65,8h-1.059
		l-2.117,2.102l-1.973-2.18L22.156,3h2l3.861,5.174L27.956,8.26z"/>
</g>
</svg>
