<?xml version="1.0" encoding="utf-8"?>
<!-- Generator: Adobe Illustrator 16.0.0, SVG Export Plug-In . SVG Version: 6.00 Build 0)  -->
<!DOCTYPE svg PUBLIC "-//W3C//DTD SVG 1.1//EN" "http://www.w3.org/Graphics/SVG/1.1/DTD/svg11.dtd" [
	<!ENTITY ns_extend "http://ns.adobe.com/Extensibility/1.0/">
	<!ENTITY ns_ai "http://ns.adobe.com/AdobeIllustrator/10.0/">
	<!ENTITY ns_graphs "http://ns.adobe.com/Graphs/1.0/">
	<!ENTITY ns_vars "http://ns.adobe.com/Variables/1.0/">
	<!ENTITY ns_imrep "http://ns.adobe.com/ImageReplacement/1.0/">
	<!ENTITY ns_sfw "http://ns.adobe.com/SaveForWeb/1.0/">
	<!ENTITY ns_custom "http://ns.adobe.com/GenericCustomNamespace/1.0/">
	<!ENTITY ns_adobe_xpath "http://ns.adobe.com/XPath/1.0/">
]>
<svg version="1.1" id="Layer_1" xmlns:x="&ns_extend;" xmlns:i="&ns_ai;" xmlns:graph="&ns_graphs;"
	 xmlns="http://www.w3.org/2000/svg" xmlns:xlink="http://www.w3.org/1999/xlink" x="0px" y="0px" width="50px" height="34px"
	 viewBox="0 0 50 34" enable-background="new 0 0 50 34" xml:space="preserve">
<metadata>
	<sfw  xmlns="&ns_sfw;">
		<slices></slices>
		<sliceSourceBounds  width="16383" height="16383" y="-8472" x="-7711" bottomLeftOrigin="true"></sliceSourceBounds>
	</sfw>
</metadata>
<g>
	<g>
		<polygon fill="#0F206C" points="46.5,31 48.998,31 31.025,7 28.526,7 		"/>
		<polygon fill="#0F206C" points="21.526,7 19.024,7 1,31 3.484,31 		"/>
	</g>
	<path fill="#0F206C" d="M30,33l4-4l-4-4v2.293v0.678c-1.838-0.089-5.828-0.46-8.5-2.006C19.841,25.004,19,24.007,19,23
		c0-1.36,2.538-1.985,4.777-2.537C26.345,19.83,29,19.176,29,17c0-2.275-1.987-3.249-3.438-3.959
		c-0.543-0.266-1.426-0.698-1.548-0.979c0.088-0.097,0.28-0.25,0.414-0.357C25.054,11.202,26,10.444,26,9V5h3l-4-4l-4,4h3v4
		c0,0.438-0.25,0.685-0.822,1.143C22.681,10.541,22,11.086,22,12c0,1.522,1.425,2.221,2.683,2.837C26.125,15.543,27,16.042,27,17
		c0,0.609-2.317,1.18-3.702,1.521C20.492,19.212,17,20.073,17,23c0,1.772,1.177,3.352,3.498,4.696
		c3.114,1.802,7.533,2.196,9.502,2.281v1.316V33z"/>
</g>
</svg>
