<?xml version="1.0" encoding="utf-8"?>
<!-- Generator: Adobe Illustrator 16.0.0, SVG Export Plug-In . SVG Version: 6.00 Build 0)  -->
<!DOCTYPE svg PUBLIC "-//W3C//DTD SVG 1.1//EN" "http://www.w3.org/Graphics/SVG/1.1/DTD/svg11.dtd" [
	<!ENTITY ns_extend "http://ns.adobe.com/Extensibility/1.0/">
	<!ENTITY ns_ai "http://ns.adobe.com/AdobeIllustrator/10.0/">
	<!ENTITY ns_graphs "http://ns.adobe.com/Graphs/1.0/">
	<!ENTITY ns_vars "http://ns.adobe.com/Variables/1.0/">
	<!ENTITY ns_imrep "http://ns.adobe.com/ImageReplacement/1.0/">
	<!ENTITY ns_sfw "http://ns.adobe.com/SaveForWeb/1.0/">
	<!ENTITY ns_custom "http://ns.adobe.com/GenericCustomNamespace/1.0/">
	<!ENTITY ns_adobe_xpath "http://ns.adobe.com/XPath/1.0/">
]>
<svg version="1.1" id="Layer_1" xmlns:x="&ns_extend;" xmlns:i="&ns_ai;" xmlns:graph="&ns_graphs;"
	 xmlns="http://www.w3.org/2000/svg" xmlns:xlink="http://www.w3.org/1999/xlink" x="0px" y="0px" width="50px" height="32px"
	 viewBox="0 0 50 32" enable-background="new 0 0 50 32" xml:space="preserve">
<metadata>
	<sfw  xmlns="&ns_sfw;">
		<slices></slices>
		<sliceSourceBounds  width="16383" height="16383" y="-8472" x="-7711" bottomLeftOrigin="true"></sliceSourceBounds>
	</sfw>
</metadata>
<path fill="#FA364A" d="M34.89,30.994C31.735,30.644,16,28.611,16,23c0-2.972,4.073-3.744,8.013-4.491
	c1.66-0.314,4.749-0.9,4.989-1.516c-0.001-0.906-2.347-1.624-3.898-2.099C22.993,14.249,21,13.639,21,12
	c0-1.11,1.135-1.565,2.233-2.005C24.406,9.525,25,9.191,25,9c0-0.382-0.008-0.386-0.447-0.605C24.01,8.123,23,7.618,23,6
	c0-2.588,2.449-3.842,2.553-3.895l0.895,1.789C26.438,3.899,25,4.658,25,6c0,0.382,0.008,0.386,0.447,0.605
	C25.99,6.877,27,7.382,27,9c0,1.641-1.747,2.341-3.023,2.852c-0.199,0.08-0.451,0.181-0.666,0.277c0.567,0.3,1.66,0.634,2.377,0.854
	C28.055,13.707,31,14.609,31,17c0,2.221-3.065,2.802-6.615,3.475C21.842,20.957,18,21.685,18,23c0,2.8,10.21,5.239,17.11,6.006
	L34.89,30.994z"/>
<polygon fill="#FA364A" points="24.531,3 25.531,3 46.484,31 48.998,31 26.832,1.4 26.531,1 23.531,1 0.998,31 3.516,31 "/>
</svg>
