<?xml version="1.0" encoding="utf-8"?>
<!-- Generator: Adobe Illustrator 16.0.0, SVG Export Plug-In . SVG Version: 6.00 Build 0)  -->
<!DOCTYPE svg PUBLIC "-//W3C//DTD SVG 1.1//EN" "http://www.w3.org/Graphics/SVG/1.1/DTD/svg11.dtd" [
	<!ENTITY ns_extend "http://ns.adobe.com/Extensibility/1.0/">
	<!ENTITY ns_ai "http://ns.adobe.com/AdobeIllustrator/10.0/">
	<!ENTITY ns_graphs "http://ns.adobe.com/Graphs/1.0/">
	<!ENTITY ns_vars "http://ns.adobe.com/Variables/1.0/">
	<!ENTITY ns_imrep "http://ns.adobe.com/ImageReplacement/1.0/">
	<!ENTITY ns_sfw "http://ns.adobe.com/SaveForWeb/1.0/">
	<!ENTITY ns_custom "http://ns.adobe.com/GenericCustomNamespace/1.0/">
	<!ENTITY ns_adobe_xpath "http://ns.adobe.com/XPath/1.0/">
]>
<svg version="1.1" id="Layer_1" xmlns:x="&ns_extend;" xmlns:i="&ns_ai;" xmlns:graph="&ns_graphs;"
	 xmlns="http://www.w3.org/2000/svg" xmlns:xlink="http://www.w3.org/1999/xlink" x="0px" y="0px" width="75px" height="32px"
	 viewBox="0 0 75 32" enable-background="new 0 0 75 32" xml:space="preserve">
<metadata>
	<sfw  xmlns="&ns_sfw;">
		<slices></slices>
		<sliceSourceBounds  width="16383" height="16383" y="-8472" x="-7711" bottomLeftOrigin="true"></sliceSourceBounds>
	</sfw>
</metadata>
<g>
	<polygon fill="#FF0E45" points="71,27 71,5 74,5 70,1 66,5 69,5 69,27 66,27 70,31 74,27 	"/>
	<path fill="#FF0E45" d="M62.962,31L40.796,1.4L40.495,1h-3L14.962,31h2.518l12.649-16.853L34.061,18h1.422l3.719-3.94L43.446,18
		h1.381l3.457-3.264L60.448,31H62.962z M44.128,15.977L39.853,12h-1.411l-3.708,3.977l-3.397-3.439L38.495,3h1l7.584,10.135
		L44.128,15.977z"/>
	<polygon fill="#FF0E45" points="20.455,9 24.563,14.663 25.869,13.045 21.473,7 18.455,7 1,31 3.464,31 12.977,17.927 16.016,21 
		17.438,21 20.155,18.009 21.125,18.928 22.373,17.38 20.903,16 19.492,16 16.688,18.749 14.177,16.278 19.473,9 	"/>
</g>
</svg>
