<?xml version="1.0" encoding="utf-8"?>
<!-- Generator: Adobe Illustrator 16.0.0, SVG Export Plug-In . SVG Version: 6.00 Build 0)  -->
<!DOCTYPE svg PUBLIC "-//W3C//DTD SVG 1.1//EN" "http://www.w3.org/Graphics/SVG/1.1/DTD/svg11.dtd" [
	<!ENTITY ns_extend "http://ns.adobe.com/Extensibility/1.0/">
	<!ENTITY ns_ai "http://ns.adobe.com/AdobeIllustrator/10.0/">
	<!ENTITY ns_graphs "http://ns.adobe.com/Graphs/1.0/">
	<!ENTITY ns_vars "http://ns.adobe.com/Variables/1.0/">
	<!ENTITY ns_imrep "http://ns.adobe.com/ImageReplacement/1.0/">
	<!ENTITY ns_sfw "http://ns.adobe.com/SaveForWeb/1.0/">
	<!ENTITY ns_custom "http://ns.adobe.com/GenericCustomNamespace/1.0/">
	<!ENTITY ns_adobe_xpath "http://ns.adobe.com/XPath/1.0/">
]>
<svg version="1.1" id="Layer_1" xmlns:x="&ns_extend;" xmlns:i="&ns_ai;" xmlns:graph="&ns_graphs;"
	 xmlns="http://www.w3.org/2000/svg" xmlns:xlink="http://www.w3.org/1999/xlink" x="0px" y="0px" width="50px" height="50px"
	 viewBox="0 0 50 50" enable-background="new 0 0 50 50" xml:space="preserve">
<metadata>
	<sfw  xmlns="&ns_sfw;">
		<slices></slices>
		<sliceSourceBounds  width="16383" height="16383" x="-7711" y="-8472" bottomLeftOrigin="true"></sliceSourceBounds>
	</sfw>
</metadata>
<polygon fill="#FF0E45" points="37.979,13.636 38.586,14.242 40,15.656 40,10 34.343,10 35.758,11.414 36.565,12.222 25.101,23.687 
	13.535,12.121 14.242,11.414 15.657,10 10,10 10,15.656 11.414,14.242 12.121,13.535 23.687,25.101 12.222,36.565 11.414,35.758 
	10,34.344 10,40 15.657,40 14.242,38.586 13.636,37.979 25.101,26.515 36.465,37.879 35.758,38.586 34.343,40 40,40 40,34.344 
	38.586,35.758 37.879,36.465 26.515,25.101 "/>
</svg>
