<?xml version="1.0" encoding="utf-8"?>
<!-- Generator: Adobe Illustrator 16.0.0, SVG Export Plug-In . SVG Version: 6.00 Build 0)  -->
<!DOCTYPE svg PUBLIC "-//W3C//DTD SVG 1.1//EN" "http://www.w3.org/Graphics/SVG/1.1/DTD/svg11.dtd" [
	<!ENTITY ns_extend "http://ns.adobe.com/Extensibility/1.0/">
	<!ENTITY ns_ai "http://ns.adobe.com/AdobeIllustrator/10.0/">
	<!ENTITY ns_graphs "http://ns.adobe.com/Graphs/1.0/">
	<!ENTITY ns_vars "http://ns.adobe.com/Variables/1.0/">
	<!ENTITY ns_imrep "http://ns.adobe.com/ImageReplacement/1.0/">
	<!ENTITY ns_sfw "http://ns.adobe.com/SaveForWeb/1.0/">
	<!ENTITY ns_custom "http://ns.adobe.com/GenericCustomNamespace/1.0/">
	<!ENTITY ns_adobe_xpath "http://ns.adobe.com/XPath/1.0/">
]>
<svg version="1.1" id="Layer_1" xmlns:x="&ns_extend;" xmlns:i="&ns_ai;" xmlns:graph="&ns_graphs;"
	 xmlns="http://www.w3.org/2000/svg" xmlns:xlink="http://www.w3.org/1999/xlink" x="0px" y="0px" width="28px" height="20px"
	 viewBox="0 0 28 20" enable-background="new 0 0 28 20" xml:space="preserve">
<metadata>
	<sfw  xmlns="&ns_sfw;">
		<slices></slices>
		<sliceSourceBounds  width="16383" height="16383" y="-8472" x="-7711" bottomLeftOrigin="true"></sliceSourceBounds>
	</sfw>
</metadata>
<g>
	<g>
		<polygon fill="#FFFFFF" points="25,17 26.998,17 19.012,7 17,7 		"/>
		<polygon fill="#FFFFFF" points="11,7 9.012,7 0.998,17 3,17 		"/>
	</g>
	<path fill="#FFFFFF" d="M19,16l-4-3v2.087c-0.87-0.135-1.862-0.379-2.626-0.821c-0.513-0.297-1.125-0.758-1.125-1.266
		c0-0.484,1.271-0.797,2.198-1.025c1.313-0.324,2.802-0.69,2.802-1.975C16.249,8.704,15,8.499,15,8c0-1,0.004-1.022,0-1V5h2
		l-3.001-4L11,5h2v2c0,0.92,1.749,2.645,1.77,2.931c-0.158,0.212-1.111,0.446-1.681,0.587C11.601,10.885,9.749,11.341,9.749,13
		c0,0.981,0.63,1.844,1.874,2.564c1.024,0.592,2.315,0.888,3.377,1.036V19L19,16z"/>
</g>
</svg>
