<?xml version="1.0" encoding="utf-8"?>
<!-- Generator: Adobe Illustrator 16.0.0, SVG Export Plug-In . SVG Version: 6.00 Build 0)  -->
<!DOCTYPE svg PUBLIC "-//W3C//DTD SVG 1.1//EN" "http://www.w3.org/Graphics/SVG/1.1/DTD/svg11.dtd" [
	<!ENTITY ns_extend "http://ns.adobe.com/Extensibility/1.0/">
	<!ENTITY ns_ai "http://ns.adobe.com/AdobeIllustrator/10.0/">
	<!ENTITY ns_graphs "http://ns.adobe.com/Graphs/1.0/">
	<!ENTITY ns_vars "http://ns.adobe.com/Variables/1.0/">
	<!ENTITY ns_imrep "http://ns.adobe.com/ImageReplacement/1.0/">
	<!ENTITY ns_sfw "http://ns.adobe.com/SaveForWeb/1.0/">
	<!ENTITY ns_custom "http://ns.adobe.com/GenericCustomNamespace/1.0/">
	<!ENTITY ns_adobe_xpath "http://ns.adobe.com/XPath/1.0/">
]>
<svg version="1.1" id="Layer_1" xmlns:x="&ns_extend;" xmlns:i="&ns_ai;" xmlns:graph="&ns_graphs;"
	 xmlns="http://www.w3.org/2000/svg" xmlns:xlink="http://www.w3.org/1999/xlink" x="0px" y="0px" width="50px" height="42px"
	 viewBox="0 0 50 42" enable-background="new 0 0 50 42" xml:space="preserve">
<metadata>
	<sfw  xmlns="&ns_sfw;">
		<slices></slices>
		<sliceSourceBounds  width="16383" height="16383" y="-8472" x="-7711" bottomLeftOrigin="true"></sliceSourceBounds>
	</sfw>
</metadata>
<path fill="none" stroke="#FF0E45" stroke-width="2" stroke-miterlimit="10" d="M5.412,31.47"/>
<path fill="none" stroke="#FF0E45" stroke-width="2" stroke-miterlimit="10" d="M2.412,30.47"/>
<path fill="#FF0E45" d="M49,23l-23-8h-2l-11,3.826V16l-2-2H8l-2,2v5.261L1,23l1,1.733l4-1.38V41h2V22.663L24,17h2l16,5.663V41h2
	V23.354l4,1.38L49,23z M8,16.414L8.414,16h2.172L11,16.414v3.107l-3,1.044V16.414z"/>
<g>
	<path fill="#FF0E45" d="M10,12c0,0,0-1,0-2c0-2,2-2,2-4S8,2,8,1C7,1,6,1,6,1c0,2,4,2.412,4,5c0,1-2,2.986-2,3.993S8,12,8,12H10z"/>
</g>
<path fill="#FF0E45" d="M37.415,34h-8.829L27,32.414v-4.828L28.586,26h8.828L39,27.586l-0.002,4.828L37.415,34z M29.414,32h7.171
	l0.413-0.414L37,28.414L36.586,28h-7.172L29,28.414v3.172L29.414,32z"/>
<path fill="#FF0E45" d="M21.415,34h-8.829L11,32.414v-4.828L12.586,26h8.828L23,27.586l-0.002,4.828L21.415,34z M13.414,32h7.171
	l0.413-0.414L21,28.414L20.586,28h-7.172L13,28.414v3.172L13.414,32z"/>
</svg>
