<?xml version="1.0" encoding="utf-8"?>
<!-- Generator: Adobe Illustrator 16.0.0, SVG Export Plug-In . SVG Version: 6.00 Build 0)  -->
<!DOCTYPE svg PUBLIC "-//W3C//DTD SVG 1.1//EN" "http://www.w3.org/Graphics/SVG/1.1/DTD/svg11.dtd" [
	<!ENTITY ns_extend "http://ns.adobe.com/Extensibility/1.0/">
	<!ENTITY ns_ai "http://ns.adobe.com/AdobeIllustrator/10.0/">
	<!ENTITY ns_graphs "http://ns.adobe.com/Graphs/1.0/">
	<!ENTITY ns_vars "http://ns.adobe.com/Variables/1.0/">
	<!ENTITY ns_imrep "http://ns.adobe.com/ImageReplacement/1.0/">
	<!ENTITY ns_sfw "http://ns.adobe.com/SaveForWeb/1.0/">
	<!ENTITY ns_custom "http://ns.adobe.com/GenericCustomNamespace/1.0/">
	<!ENTITY ns_adobe_xpath "http://ns.adobe.com/XPath/1.0/">
]>
<svg version="1.1" id="Layer_1" xmlns:x="&ns_extend;" xmlns:i="&ns_ai;" xmlns:graph="&ns_graphs;"
	 xmlns="http://www.w3.org/2000/svg" xmlns:xlink="http://www.w3.org/1999/xlink" x="0px" y="0px" width="40px" height="40px"
	 viewBox="0 0 40 40" enable-background="new 0 0 40 40" xml:space="preserve">
<metadata>
	<sfw  xmlns="&ns_sfw;">
		<slices></slices>
		<sliceSourceBounds  width="16383" height="16383" x="-7711" y="-8472" bottomLeftOrigin="true"></sliceSourceBounds>
	</sfw>
</metadata>
<g>
	<path fill="#8990A5" d="M33.94,8.595L31.423,6H8.576L6.062,8.595L6,30h1h1v2v2h1.94h2.119H14v-2v-2h12v2l0,0v2h0.06H28h2h1.94H32
		v-2l0,0v-2l0,0h0.94H34L33.94,8.595z M9,8h22l1,1v6H8V9L9,8z M12,32h-2v-2h2V32z M30,32h-2v-2h2V32z M8,28V17h24v11H8z"/>
	<rect x="11" y="10" fill="#8990A5" width="3" height="3"/>
	<rect x="16" y="10" fill="#8990A5" width="3" height="3"/>
	<rect x="21" y="10" fill="#8990A5" width="3" height="3"/>
	<rect x="26" y="10" fill="#8990A5" width="3" height="3"/>
</g>
</svg>
