<?xml version="1.0" encoding="utf-8"?>
<!-- Generator: Adobe Illustrator 16.0.0, SVG Export Plug-In . SVG Version: 6.00 Build 0)  -->
<!DOCTYPE svg PUBLIC "-//W3C//DTD SVG 1.1//EN" "http://www.w3.org/Graphics/SVG/1.1/DTD/svg11.dtd" [
	<!ENTITY ns_extend "http://ns.adobe.com/Extensibility/1.0/">
	<!ENTITY ns_ai "http://ns.adobe.com/AdobeIllustrator/10.0/">
	<!ENTITY ns_graphs "http://ns.adobe.com/Graphs/1.0/">
	<!ENTITY ns_vars "http://ns.adobe.com/Variables/1.0/">
	<!ENTITY ns_imrep "http://ns.adobe.com/ImageReplacement/1.0/">
	<!ENTITY ns_sfw "http://ns.adobe.com/SaveForWeb/1.0/">
	<!ENTITY ns_custom "http://ns.adobe.com/GenericCustomNamespace/1.0/">
	<!ENTITY ns_adobe_xpath "http://ns.adobe.com/XPath/1.0/">
]>
<svg version="1.1" id="Layer_1" xmlns:x="&ns_extend;" xmlns:i="&ns_ai;" xmlns:graph="&ns_graphs;"
	 xmlns="http://www.w3.org/2000/svg" xmlns:xlink="http://www.w3.org/1999/xlink" x="0px" y="0px" width="19px" height="19px"
	 viewBox="0 0 19 19" enable-background="new 0 0 19 19" xml:space="preserve">
<metadata>
	<sfw  xmlns="&ns_sfw;">
		<slices></slices>
		<sliceSourceBounds  width="16383" height="16383" y="-8472" x="-7711" bottomLeftOrigin="true"></sliceSourceBounds>
	</sfw>
</metadata>
<polygon fill="#0F206C" points="1,6 1,4 18,1 18,3 "/>
<path fill="#0F206C" d="M16.414,18H3.586L2,16.414V9.586L3.586,8h12.828L18,9.586v6.828L16.414,18z M4.414,16h11.172L16,15.586
	v-5.172L15.586,10H4.414L4,10.414v5.172L4.414,16z"/>
<rect x="5" y="11" fill="#0F206C" width="2" height="2"/>
<rect x="9" y="11" fill="#0F206C" width="2" height="2"/>
<rect x="13" y="11" fill="#0F206C" width="2" height="2"/>
<rect x="8.5" y="3.5" transform="matrix(0.7999 0.6002 -0.6002 0.7999 5.5021 -4.5008)" fill="#0F206C" width="2" height="5"/>
<rect x="10" y="5" transform="matrix(0.6 0.8 -0.8 0.6 9.8 -7.6)" fill="#0F206C" width="5" height="2"/>
</svg>
