<?xml version="1.0" encoding="utf-8"?>
<!-- Generator: Adobe Illustrator 16.0.0, SVG Export Plug-In . SVG Version: 6.00 Build 0)  -->
<!DOCTYPE svg PUBLIC "-//W3C//DTD SVG 1.1//EN" "http://www.w3.org/Graphics/SVG/1.1/DTD/svg11.dtd" [
	<!ENTITY ns_extend "http://ns.adobe.com/Extensibility/1.0/">
	<!ENTITY ns_ai "http://ns.adobe.com/AdobeIllustrator/10.0/">
	<!ENTITY ns_graphs "http://ns.adobe.com/Graphs/1.0/">
	<!ENTITY ns_vars "http://ns.adobe.com/Variables/1.0/">
	<!ENTITY ns_imrep "http://ns.adobe.com/ImageReplacement/1.0/">
	<!ENTITY ns_sfw "http://ns.adobe.com/SaveForWeb/1.0/">
	<!ENTITY ns_custom "http://ns.adobe.com/GenericCustomNamespace/1.0/">
	<!ENTITY ns_adobe_xpath "http://ns.adobe.com/XPath/1.0/">
]>
<svg version="1.1" id="Layer_1" xmlns:x="&ns_extend;" xmlns:i="&ns_ai;" xmlns:graph="&ns_graphs;"
	 xmlns="http://www.w3.org/2000/svg" xmlns:xlink="http://www.w3.org/1999/xlink" x="0px" y="0px" width="39px" height="21px"
	 viewBox="0 0 39 21" enable-background="new 0 0 39 21" xml:space="preserve">
<metadata>
	<sfw  xmlns="&ns_sfw;">
		<slices></slices>
		<sliceSourceBounds  width="16383" height="16383" y="-8472" x="-7711" bottomLeftOrigin="true"></sliceSourceBounds>
	</sfw>
</metadata>
<g>
	<rect x="30" y="5" fill="#FFFFFF" width="2" height="4"/>
	<rect x="24" y="5" fill="#FFFFFF" width="2" height="4"/>
	<rect x="18" y="5" fill="#FFFFFF" width="2" height="4"/>
	<rect x="12" y="5" fill="#FFFFFF" width="2" height="4"/>
	<rect x="5" y="5" fill="#FFFFFF" width="2" height="4"/>
</g>
<path fill="#FFFFFF" d="M1,3.624v10.752L3.296,17H5v1.414L6.586,20h2.828L11,18.414V17h17v1.414L29.586,20h2.828L34,18.414V17h1.13
	L38,14.449V3.551L35.13,1H3.296L1,3.624z M30,17v-0.586V16h0.414h1.172H32v0.414V17v0.586V18h-0.414h-1.172H30v-0.414V17z M7,17
	v-0.586V16h0.414h1.172H9v0.414V17v0.586V18H8.586H7.414H7v-0.414V17z M3,4.376L4.204,3H34.37L36,4.449v9.102L34.37,15h-0.956l-1-1
	h-2.828l-1,1H10.414l-1-1H6.586l-1,1H4.204L3,13.624V4.376z"/>
</svg>
