<?xml version="1.0" encoding="utf-8"?>
<!-- Generator: Adobe Illustrator 16.0.0, SVG Export Plug-In . SVG Version: 6.00 Build 0)  -->
<!DOCTYPE svg PUBLIC "-//W3C//DTD SVG 1.1//EN" "http://www.w3.org/Graphics/SVG/1.1/DTD/svg11.dtd" [
	<!ENTITY ns_extend "http://ns.adobe.com/Extensibility/1.0/">
	<!ENTITY ns_ai "http://ns.adobe.com/AdobeIllustrator/10.0/">
	<!ENTITY ns_graphs "http://ns.adobe.com/Graphs/1.0/">
	<!ENTITY ns_vars "http://ns.adobe.com/Variables/1.0/">
	<!ENTITY ns_imrep "http://ns.adobe.com/ImageReplacement/1.0/">
	<!ENTITY ns_sfw "http://ns.adobe.com/SaveForWeb/1.0/">
	<!ENTITY ns_custom "http://ns.adobe.com/GenericCustomNamespace/1.0/">
	<!ENTITY ns_adobe_xpath "http://ns.adobe.com/XPath/1.0/">
]>
<svg version="1.1" id="Layer_1" xmlns:x="&ns_extend;" xmlns:i="&ns_ai;" xmlns:graph="&ns_graphs;"
	 xmlns="http://www.w3.org/2000/svg" xmlns:xlink="http://www.w3.org/1999/xlink" x="0px" y="0px" width="50px" height="34px"
	 viewBox="0 0 50 34" enable-background="new 0 0 50 34" xml:space="preserve">
<metadata>
	<sfw  xmlns="&ns_sfw;">
		<slices></slices>
		<sliceSourceBounds  width="16383" height="16383" y="-8472" x="-7711" bottomLeftOrigin="true"></sliceSourceBounds>
	</sfw>
</metadata>
<g>
	<g>
		<polygon fill="#FF0E45" points="46.502,31 49,31 31.027,7 28.528,7 		"/>
		<polygon fill="#FF0E45" points="21.528,7 19.026,7 1,31 3.486,31 		"/>
	</g>
	<path fill="#FF0E45" d="M30,33l4-4l-4-4v2.293v0.675c-2-0.091-5.827-0.457-8.499-2.003c-1.659-0.96-2.5-1.958-2.5-2.965
		c0-1.36,2.538-1.985,4.777-2.537c2.568-0.633,5.224-1.287,5.224-3.463c0-2.275-1.987-3.249-3.438-3.959
		c-0.543-0.266-1.426-0.698-1.548-0.979c0.088-0.097,0.279-0.25,0.413-0.357C25.055,11.202,26,10.444,26,9V5h3.002l-4-4l-4,4H24v4
		c0,0.438-0.25,0.685-0.821,1.143c-0.497,0.398-1.177,0.943-1.177,1.857c0,1.522,1.425,2.221,2.683,2.837
		c1.441,0.706,2.317,1.205,2.317,2.163c0,0.609-2.317,1.18-3.702,1.521c-2.806,0.691-6.298,1.552-6.298,4.479
		c0,1.772,1.176,3.352,3.497,4.696C23.613,29.498,28,29.892,30,29.977v1.316V33z"/>
</g>
</svg>
